<svg width="27" height="27" viewBox="0 0 27 27" fill="none" xmlns="http://www.w3.org/2000/svg">
<g id="Papotte">
<path id="Vector" d="M13.5 26C20.4037 26 26 20.4037 26 13.5C26 6.59625 20.4037 1 13.5 1C6.59625 1 1 6.59625 1 13.5C1 15.7762 1.60875 17.9125 2.6725 19.75L1.625 25.375L7.25 24.3275C9.14954 25.426 11.3057 26.003 13.5 26Z" stroke="#1B998B" stroke-width="2" stroke-linecap="round" stroke-linejoin="round"/>
<g id="Croix">
<path id="Vector_2" d="M16.9055 8.10413C17.0111 7.99241 17.1381 7.903 17.279 7.8412C17.4198 7.7794 17.5716 7.74645 17.7253 7.74431C17.8791 7.74217 18.0318 7.77089 18.1742 7.82875C18.3167 7.88661 18.4462 7.97245 18.5549 8.0812C18.6637 8.18994 18.7495 8.31938 18.8074 8.46187C18.8652 8.60435 18.8939 8.757 18.8918 8.91077C18.8897 9.06454 18.8567 9.21633 18.7949 9.35715C18.7331 9.49797 18.6437 9.62497 18.532 9.73065L15.1608 13.1018C15.1563 13.1063 15.1528 13.1116 15.1504 13.1174C15.148 13.1232 15.1467 13.1295 15.1467 13.1358C15.1467 13.1421 15.148 13.1483 15.1504 13.1541C15.1528 13.16 15.1563 13.1652 15.1608 13.1697L18.532 16.5409C18.6403 16.6474 18.7264 16.7743 18.7854 16.9142C18.8444 17.0542 18.8751 17.2044 18.8757 17.3563C18.8763 17.5082 18.8469 17.6587 18.7891 17.7991C18.7313 17.9396 18.6462 18.0672 18.5388 18.1746C18.4314 18.282 18.3038 18.3671 18.1634 18.425C18.023 18.4828 17.8725 18.5123 17.7206 18.5117C17.5687 18.5111 17.4185 18.4804 17.2785 18.4215C17.1385 18.3625 17.0116 18.2764 16.9051 18.1682L13.5339 14.797C13.5295 14.7925 13.5242 14.789 13.5183 14.7866C13.5125 14.7841 13.5063 14.7829 13.5 14.7829C13.4937 14.7829 13.4874 14.7841 13.4816 14.7866C13.4758 14.789 13.4705 14.7925 13.466 14.797L10.0949 18.1682C9.98835 18.2764 9.86146 18.3626 9.7215 18.4216C9.58155 18.4805 9.43129 18.5112 9.27941 18.5119C9.12753 18.5125 8.97703 18.4831 8.83658 18.4253C8.69613 18.3674 8.56852 18.2824 8.46111 18.175C8.3537 18.0676 8.26862 17.94 8.21076 17.7996C8.15291 17.6592 8.12343 17.5087 8.12403 17.3568C8.12463 17.2049 8.1553 17.0546 8.21426 16.9147C8.27322 16.7747 8.35932 16.6478 8.46757 16.5412L11.8387 13.1701C11.8432 13.1656 11.8467 13.1603 11.8492 13.1545C11.8516 13.1487 11.8528 13.1424 11.8528 13.1361C11.8528 13.1298 11.8516 13.1236 11.8492 13.1178C11.8467 13.1119 11.8432 13.1067 11.8387 13.1022L8.46757 9.73104C8.25468 9.5147 8.13589 9.22299 8.13709 8.91947C8.13829 8.61594 8.25938 8.32519 8.47398 8.11054C8.68858 7.89589 8.97931 7.77473 9.28283 7.77346C9.58635 7.77219 9.87808 7.8909 10.0945 8.10375L13.4656 11.4749C13.4701 11.4794 13.4754 11.4829 13.4812 11.4853C13.487 11.4878 13.4933 11.489 13.4996 11.489C13.5059 11.489 13.5121 11.4878 13.518 11.4853C13.5238 11.4829 13.5291 11.4794 13.5335 11.4749L16.9055 8.10413Z" fill="#1B998B"/>
</g>
</g>
</svg>
